$MeshFormat
4.1 0 8
$EndMeshFormat
$PhysicalNames
8
0 2 "inlet"
0 3 "sides"
0 5 "walls"
1 2 "inlet"
1 3 "sides"
1 4 "outflow"
1 5 "walls"
2 1 "fluid"
$EndPhysicalNames
$Entities
8 8 1 0
1 0 0 0 1 2 
2 0.6 0 0 1 3 
3 0.6 0.4 0 1 3 
4 0 0.4 0 1 2 
5 0.18 0.18 0 1 5 
6 0.22 0.18 0 1 5 
7 0.22 0.22 0 1 5 
8 0.18 0.22 0 1 5 
1 0 0 0 0.6 0 0 1 3 2 1 -2 
2 0.6 0 0 0.6 0.4 0 1 4 2 2 -3 
3 0 0.4 0 0.6 0.4 0 1 3 2 3 -4 
4 0 0 0 0 0.4 0 1 2 2 4 -1 
5 0.18 0.18 0 0.22 0.18 0 1 5 2 5 -6 
6 0.22 0.18 0 0.22 0.22 0 1 5 2 6 -7 
7 0.18 0.22 0 0.22 0.22 0 1 5 2 7 -8 
8 0.18 0.18 0 0.18 0.22 0 1 5 2 8 -5 
1 0 0 0 0.6 0.4 0 1 1 8 1 2 3 4 -8 -7 -6 -5 
$EndEntities
$Nodes
17 777 1 777
0 1 0 1
1
0 0 0
0 2 0 1
2
0.6 0 0
0 3 0 1
3
0.6 0.4 0
0 4 0 1
4
0 0.4 0
0 5 0 1
5
0.18 0.18 0
0 6 0 1
6
0.22 0.18 0
0 7 0 1
7
0.22 0.22 0
0 8 0 1
8
0.18 0.22 0
1 1 0 14
9
10
11
12
13
14
15
16
17
18
19
20
21
22
0.03999999999992054 0 0
0.07999999999985184 0 0
0.1199999999997407 0 0
0.1599999999996241 0 0
0.1999999999995075 0 0
0.2399999999994017 0 0
0.2799999999992852 0 0
0.3199999999992748 0 0
0.3599999999993836 0 0
0.3999999999994955 0 0
0.4399999999995949 0 0
0.4799999999997017 0 0
0.5199999999997968 0 0
0.5599999999998884 0 0
1 2 0 9
23
24
25
26
27
28
29
30
31
0.6 0.03999999999992994 0
0.6 0.07999999999982403 0
0.6 0.1199999999997091 0
0.6 0.1599999999995834 0
0.6 0.199999999999474 0
0.6 0.2399999999995771 0
0.6 0.279999999999679 0
0.6 0.3199999999997895 0
0.6 0.3599999999998915 0
1 3 0 14
32
33
34
35
36
37
38
39
40
41
42
43
44
45
0.5600000000000585 0.4 0
0.5200000000000952 0.4 0
0.4800000000002186 0.4 0
0.4400000000003205 0.4 0
0.4000000000004439 0.4 0
0.3600000000005675 0.4 0
0.3200000000006909 0.4 0
0.2800000000007082 0.4 0
0.2400000000005954 0.4 0
0.200000000000494 0.4 0
0.1600000000003962 0.4 0
0.1200000000002972 0.4 0
0.0800000000001951 0.4 0
0.04000000000009764 0.4 0
1 4 0 9
46
47
48
49
50
51
52
53
54
0 0.3600000000000911 0
0 0.3200000000001996 0
0 0.2800000000003318 0
0 0.2400000000004425 0
0 0.2000000000005477 0
0 0.1600000000004403 0
0 0.1200000000003335 0
0 0.08000000000021963 0
0 0.04000000000011093 0
1 5 0 14
55
56
57
58
59
60
61
62
63
64
65
66
67
68
0.1826666666666522 0.18 0
0.1853333333333265 0.18 0
0.1879999999999837 0.18 0
0.1906666666666367 0.18 0
0.1933333333332918 0.18 0
0.1959999999999686 0.18 0
0.1986666666666237 0.18 0
0.2013333333332788 0.18 0
0.2039999999999556 0.18 0
0.2066666666666324 0.18 0
0.2093333333333091 0.18 0
0.2119999999999751 0.18 0
0.2146666666666519 0.18 0
0.2173333333333287 0.18 0
1 6 0 14
69
70
71
72
73
74
75
76
77
78
79
80
81
82
0.22 0.1826666666666522 0
0.22 0.1853333333333265 0
0.22 0.1879999999999837 0
0.22 0.1906666666666367 0
0.22 0.1933333333332918 0
0.22 0.1959999999999686 0
0.22 0.1986666666666237 0
0.22 0.2013333333332788 0
0.22 0.2039999999999556 0
0.22 0.2066666666666324 0
0.22 0.2093333333333091 0
0.22 0.2119999999999751 0
0.22 0.2146666666666519 0
0.22 0.2173333333333287 0
1 7 0 14
83
84
85
86
87
88
89
90
91
92
93
94
95
96
0.2173333333333478 0.22 0
0.2146666666666736 0.22 0
0.2120000000000163 0.22 0
0.2093333333333634 0.22 0
0.2066666666667083 0.22 0
0.2040000000000315 0.22 0
0.2013333333333764 0.22 0
0.1986666666667213 0.22 0
0.1960000000000445 0.22 0
0.1933333333333677 0.22 0
0.1906666666666909 0.22 0
0.188000000000025 0.22 0
0.1853333333333482 0.22 0
0.1826666666666714 0.22 0
1 8 0 14
97
98
99
100
101
102
103
104
105
106
107
108
109
110
0.18 0.2173333333333478 0
0.18 0.2146666666666736 0
0.18 0.2120000000000163 0
0.18 0.2093333333333634 0
0.18 0.2066666666667083 0
0.18 0.2040000000000315 0
0.18 0.2013333333333764 0
0.18 0.1986666666667213 0
0.18 0.1960000000000445 0
0.18 0.1933333333333677 0
0.18 0.1906666666666909 0
0.18 0.188000000000025 0
0.18 0.1853333333333482 0
0.18 0.1826666666666714 0
2 1 0 667
111
112
113
114
115
116
117
118
119
120
121
122
123
124
125
126
127
128
129
130
131
132
133
134
135
136
137
138
139
140
141
142
143
144
145
146
147
148
149
150
151
152
153
154
155
156
157
158
159
160
161
162
163
164
165
166
167
168
169
170
171
172
173
174
175
176
177
178
179
180
181
182
183
184
185
186
187
188
189
190
191
192
193
194
195
196
197
198
199
200
201
202
203
204
205
206
207
208
209
210
211
212
213
214
215
216
217
218
219
220
221
222
223
224
225
226
227
228
229
230
231
232
233
234
235
236
237
238
239
240
241
242
243
244
245
246
247
248
249
250
251
252
253
254
255
256
257
258
259
260
261
262
263
264
265
266
267
268
269
270
271
272
273
274
275
276
277
278
279
280
281
282
283
284
285
286
287
288
289
290
291
292
293
294
295
296
297
298
299
300
301
302
303
304
305
306
307
308
309
310
311
312
313
314
315
316
317
318
319
320
321
322
323
324
325
326
327
328
329
330
331
332
333
334
335
336
337
338
339
340
341
342
343
344
345
346
347
348
349
350
351
352
353
354
355
356
357
358
359
360
361
362
363
364
365
366
367
368
369
370
371
372
373
374
375
376
377
378
379
380
381
382
383
384
385
386
387
388
389
390
391
392
393
394
395
396
397
398
399
400
401
402
403
404
405
406
407
408
409
410
411
412
413
414
415
416
417
418
419
420
421
422
423
424
425
426
427
428
429
430
431
432
433
434
435
436
437
438
439
440
441
442
443
444
445
446
447
448
449
450
451
452
453
454
455
456
457
458
459
460
461
462
463
464
465
466
467
468
469
470
471
472
473
474
475
476
477
478
479
480
481
482
483
484
485
486
487
488
489
490
491
492
493
494
495
496
497
498
499
500
501
502
503
504
505
506
507
508
509
510
511
512
513
514
515
516
517
518
519
520
521
522
523
524
525
526
527
528
529
530
531
532
533
534
535
536
537
538
539
540
541
542
543
544
545
546
547
548
549
550
551
552
553
554
555
556
557
558
559
560
561
562
563
564
565
566
567
568
569
570
571
572
573
574
575
576
577
578
579
580
581
582
583
584
585
586
587
588
589
590
591
592
593
594
595
596
597
598
599
600
601
602
603
604
605
606
607
608
609
610
611
612
613
614
615
616
617
618
619
620
621
622
623
624
625
626
627
628
629
630
631
632
633
634
635
636
637
638
639
640
641
642
643
644
645
646
647
648
649
650
651
652
653
654
655
656
657
658
659
660
661
662
663
664
665
666
667
668
669
670
671
672
673
674
675
676
677
678
679
680
681
682
683
684
685
686
687
688
689
690
691
692
693
694
695
696
697
698
699
700
701
702
703
704
705
706
707
708
709
710
711
712
713
714
715
716
717
718
719
720
721
722
723
724
725
726
727
728
729
730
731
732
733
734
735
736
737
738
739
740
741
742
743
744
745
746
747
748
749
750
751
752
753
754
755
756
757
758
759
760
761
762
763
764
765
766
767
768
769
770
771
772
773
774
775
776
777
0.2223543982330571 0.1919999999999673 0
0.2223094010767579 0.210666666666642 0
0.2106666666666421 0.1776905989232421 0
0.191999999999967 0.177607516755138 0
0.1776905989232422 0.1893333333333579 0
0.1780636192827831 0.2079377361150352 0
0.1894619347030065 0.2223864467900548 0
0.2080000000000332 0.2223824609457713 0
0.381600324982582 0.0329375904336592 0
0.3826287342503301 0.3682795699444124 0
0.2223094010767485 0.1999999999999512 0
0.1776778764264101 0.1973333333333829 0
0.2026241495026772 0.17736789297091 0
0.1973333333333828 0.2223094010767578 0
0.5666795373422926 0.1832422323574487 0
0.0323987466920172 0.2631306401976418 0
0.1399957147924432 0.03558596821618636 0
0.2556788750262339 0.03214052504351424 0
0.2600000000006518 0.3653589838485859 0
0.1375362432298644 0.365864667336229 0
0.03519820568441444 0.1420090699087272 0
0.4575472987848946 0.0366080131190152 0
0.4593937861905777 0.360247902224122 0
0.5667831810048864 0.2579521101154943 0
0.5672820607829997 0.09963581984699316 0
0.5701478151158839 0.3394968870960084 0
0.03517472939709181 0.05950075684279296 0
0.06000000000014638 0.365358983848538 0
0.5394434333737336 0.03686647187370013 0
0.03337930168608626 0.1001841611406035 0
0.06265380222664434 0.1196968004552545 0
0.06574335103824322 0.1502272831874227 0
0.08780669794526141 0.1359745157790783 0
0.08849531888779841 0.1599632804259782 0
0.106905652110283 0.14923806464427 0
0.1077094097844448 0.1681076485749316 0
0.1248850462476156 0.1589651682828771 0
0.1235254284945869 0.1757716402629393 0
0.1108294931111957 0.1852047234841411 0
0.1272800789832967 0.1909840697905005 0
0.1236780807592754 0.1413350298518127 0
0.1373919861400843 0.1486638496806253 0
0.1131136044794088 0.200560652582612 0
0.129633254344718 0.2063281945709294 0
0.1152000459239434 0.2158014994962596 0
0.1290581241787892 0.2216984049492373 0
0.1165311930005309 0.2313029623860859 0
0.1306681744133042 0.2362259608217407 0
0.1185053808446845 0.2472277840264798 0
0.1356842718137554 0.2524833904652365 0
0.1378952899191297 0.1335736614886524 0
0.1514319141047152 0.1429665852821258 0
0.1519246577031781 0.1265153305309536 0
0.1648063631604522 0.1346348994525235 0
0.1657400189857509 0.1189346711870844 0
0.1801596013535155 0.1292377899664286 0
0.1799326442872974 0.1109685898935121 0
0.1937395063645452 0.1201899467347951 0
0.1200983894898475 0.2648919042632618 0
0.1372506755183823 0.2713790686739589 0
0.1509714816748643 0.2613903016000509 0
0.1537667279223484 0.2779093928457649 0
0.166312680042796 0.2672002397075625 0
0.1698192873095813 0.2837237222739915 0
0.1828331496417164 0.2706519606570927 0
0.1861005596265322 0.2896839255226529 0
0.199209163120379 0.2785400734578854 0
0.1358031382140621 0.1805221314385346 0
0.1936896004234232 0.1319345818565524 0
0.2064484542509469 0.1297638181521566 0
0.2079698998215081 0.1131471848457056 0
0.2201941615748017 0.1229656886261205 0
0.2189645343148379 0.1369524856006207 0
0.2307838059130707 0.1320297468946575 0
0.2290964927674063 0.1455463786569325 0
0.2400965995314374 0.140218912756729 0
0.2389717803123147 0.1518845448459909 0
0.2491340637958888 0.1475551235330493 0
0.2473430533486365 0.1588432655307553 0
0.2584569992907207 0.154907032244106 0
0.2553263156110856 0.167927681223365 0
0.2682712356441364 0.1626558428804344 0
0.2661489317277099 0.1752996773324907 0
0.2788955513524053 0.1707866263667972 0
0.2764198138575845 0.1844389072760151 0
0.2902178312606981 0.1795453725079667 0
0.2877740462187525 0.1955364307265133 0
0.3037316429580891 0.1883803827968834 0
0.3006035269270931 0.2072952182778963 0
0.3181906999224675 0.2008239309092856 0
0.280863713464739 0.1571298841009088 0
0.251316453696885 0.1319884400969103 0
0.3210689998919205 0.1813926455038531 0
0.3371617500274746 0.194001373937608 0
0.3148033318044666 0.2200362334816251 0
0.2948055802232443 0.2267324567348512 0
0.3401895192012895 0.1732858406879784 0
0.3577873842600224 0.1866684412126219 0
0.310746478714178 0.2397190447245663 0
0.2923009270337577 0.2470176083036013 0
0.3608939558184476 0.1636057408586107 0
0.380290220625834 0.1780851591015154 0
0.3763784114346134 0.2027980437345483 0
0.4008815956772503 0.1939254086832812 0
0.3963451319923507 0.2211174834513107 0
0.2739037529230983 0.1993338454309949 0
0.3399094966496889 0.1476120026370594 0
0.3072830186433064 0.2606319000082755 0
0.2867423709389777 0.2670113063044455 0
0.3829275600592418 0.1531787031840818 0
0.4226472203399964 0.2112019017933948 0
0.2730149600047656 0.2514004864881004 0
0.3040729820249487 0.2819175172462227 0
0.3258255272498949 0.2751793277916135 0
0.2676630702462843 0.2722609033091477 0
0.2548894753168993 0.258375865606114 0
0.2572092834404645 0.243416627417942 0
0.2547453313881742 0.1787431676635657 0
0.2441351925012227 0.2472704940959108 0
0.4252065439186996 0.1816011179856985 0
0.4179209833753184 0.2402820537689933 0
0.1407888203057231 0.2133957669817908 0
0.2458451630129744 0.2359422961423463 0
0.2177816731439368 0.1490084534873567 0
0.09970706438064111 0.2101123406923535 0
0.1398040395530158 0.1196879002100947 0
0.1970145653478385 0.2640699583917095 0
0.12181301644701 0.284215785889981 0
0.2028664341826255 0.2963827468103926 0
0.1643075057141486 0.1494730415293056 0
0.4462315316638639 0.2297976242630226 0
0.2365812754603186 0.2380026016752966 0
0.2186666666666739 0.222309401076746 0
0.2217032196169199 0.2224790640488068 0
0.2199769731424766 0.2256428614865189 0
0.164213294956731 0.2510038893295524 0
0.2233966604760678 0.1066270148821369 0
0.209947565267992 0.09522636929826814 0
0.2315851901825541 0.2475880410293836 0
0.1648886500255819 0.1007044333389161 0
0.2364882534236149 0.162700955974388 0
0.1022354325250269 0.2407957616746581 0
0.1019628766336964 0.2763450109776343 0
0.2133333333333471 0.2224185196723367 0
0.4411507075455038 0.260566449887989 0
0.4115573466642419 0.270560097122206 0
0.3220638870905266 0.2994130526295261 0
0.1880563887736454 0.3094705621520492 0
0.1565141154733479 0.295823031766576 0
0.08950825969863216 0.1077083593112073 0
0.2385753540606271 0.2290056485004579 0
0.246639586670988 0.2260450882677559 0
0.2388827671829295 0.2203338843881197 0
0.2469158957790301 0.2171245328569761 0
0.2396269481669422 0.2111625338787943 0
0.2560933974980488 0.2215910503386569 0
0.07125426420174649 0.1749301810458112 0
0.3302928064900118 0.2333486636035087 0
0.247866952129788 0.2773112749353669 0
0.2635570528375427 0.2928503032741848 0
0.2079963104279153 0.3173241484954084 0
0.2475494209647166 0.2087405561564291 0
0.2414072949107626 0.2032477315249314 0
0.4713629524003187 0.2497010390560918 0
0.4732664734764365 0.2186364586169819 0
0.1041896147348405 0.2992006393380672 0
0.2242640983505182 0.225832106054191 0
0.2217454821502998 0.2297680789563364 0
0.2165883744836006 0.2287343120835765 0
0.218817705369043 0.234362171860501 0
0.212578956759397 0.2336910922957368 0
0.215668591735861 0.2408175640674772 0
0.2083936242919865 0.2389396592125774 0
0.248416616677259 0.2006022163128357 0
0.2414160066943963 0.1955291104291287 0
0.2223577964536039 0.1813219826813858 0
0.2222750734180055 0.1783321180821171 0
0.2254159595504442 0.1799746294373069 0
0.2223860054803684 0.1866666666666523 0
0.225515837209638 0.1762434025869291 0
0.221721062751888 0.1744915970257908 0
0.2290420707323968 0.1783510869346409 0
0.2283018552672596 0.1830370234744763 0
0.2333336064025171 0.1805635892438688 0
0.21599776161607 0.177538829227684 0
0.3483968555450956 0.291044198697291 0
0.2263607191889689 0.2217279368325585 0
0.2220622336269464 0.2159142898197416 0
0.2267963100573521 0.08566901339607233 0
0.2425472362940091 0.1026051063776983 0
0.208289806583648 0.0735109549154439 0
0.2362927056454974 0.1991970889582221 0
0.4660620376155905 0.2827463796345581 0
0.2108140508326017 0.2473533482197135 0
0.1886009115114953 0.3361973439972074 0
0.2327783957981706 0.1859826526802479 0
0.2058359804721412 0.2323317262202293 0
0.2014589122718739 0.2375593656310711 0
0.2026666980772073 0.2220512273420056 0
0.225577308300428 0.1717733768314559 0
0.2209511756322419 0.1695705549255454 0
0.2098396926630339 0.2687261240842664 0
0.2382965404167913 0.1838833112060022 0
0.2400364885065542 0.176441171075067 0
0.1996792752965438 0.2325447744855327 0
0.1951928293341069 0.2365922416957282 0
0.08199109172966643 0.2917724066891161 0
0.1975198340397001 0.2427353730521055 0
0.1899331869981966 0.2413587469525266 0
0.1887688602781343 0.2339944964501049 0
0.1829198934789423 0.2391364652344131 0
0.1814362729292762 0.2324962846050549 0
0.184266666666679 0.2219446337403587 0
0.1824374714465172 0.2480167688828308 0
0.176027944432112 0.2370451890990663 0
0.1751132901586765 0.2298270079191886 0
0.177301252525404 0.2185129646466224 0
0.1691587282806474 0.2350570267491305 0
0.167915033273244 0.2270018584987238 0
0.161498013768628 0.2330564619252248 0
0.1599279683833724 0.2249710473145105 0
0.1660546048730552 0.219185373108852 0
0.1585760561507564 0.2170957207718278 0
0.1641630605855455 0.2120429234947599 0
0.1572794679193122 0.2097080030472822 0
0.1638143760168085 0.2046408683388267 0
0.156199461866001 0.2024356070041205 0
0.1617933889686119 0.1975838359043327 0
0.1549601034790192 0.1952419454102498 0
0.1606644837112855 0.1908633377101796 0
0.1672360252671003 0.1936244892523742 0
0.1668754985667477 0.186492787531554 0
0.1600592674907625 0.1840521238214344 0
0.1653817234964693 0.180041319859456 0
0.1591576807209602 0.1770926818511067 0
0.1774711364622067 0.1814581270226911 0
0.1776837493511887 0.1783168452841568 0
0.1843259132958378 0.1772202424669337 0
0.1644704245758684 0.1731882335615987 0
0.1579558087852492 0.169477473530525 0
0.3419528600925253 0.318849923360333 0
0.3733060046588387 0.3102722297849359 0
0.3102904756386425 0.3241103599285012 0
0.5037454333075871 0.2681001219678992 0
0.4933117565977221 0.3048834732634744 0
0.2255443004656223 0.1663559117674271 0
0.2202445331924664 0.1638166172680927 0
0.2153487923028503 0.1681399561150916 0
0.2145009455076355 0.1615945010653131 0
0.2091145140572731 0.1662632737186793 0
0.2085055907084575 0.1590885464302804 0
0.2032803392052832 0.1632302725379855 0
0.2021815581313872 0.1562337178964135 0
0.1968253433373701 0.1608134272921732 0
0.1983835677846397 0.1671988004950562 0
0.1918527066014625 0.1661773606373159 0
0.1902109592363216 0.1585763802912395 0
0.1850461418518178 0.1636278183176468 0
0.1973333333332932 0.1776137765186254 0
0.1829931078140637 0.1562790482507103 0
0.1776935034064641 0.1612036883816359 0
0.2090041510801428 0.1430136961409881 0
0.2187658920547609 0.3417397517359687 0
0.233377286702957 0.3191016785628807 0
0.153025595622621 0.2309155368360794 0
0.1742393774972592 0.1798415574327245 0
0.1750390944446507 0.1838364671042478 0
0.1747932472214748 0.176304545062551 0
0.1786230158599565 0.1742411437384573 0
0.225520801437881 0.1600011290220832 0
0.2333464521122229 0.2147088864538739 0
0.2465678124226131 0.07817302411853476 0
0.263886241973603 0.09444353733013072 0
0.1691923112827403 0.2081653534549431 0
0.1776905989232515 0.2133333333333446 0
0.1779765018776962 0.2025772427028576 0
0.1774105089265847 0.2218184634382493 0
0.1704314804332432 0.213642953125582 0
0.2267467996050577 0.2300879668825126 0
0.1486123062323735 0.1998553335428992 0
0.3491821280662493 0.2660140927468098 0
0.1743498604849101 0.1716384092338236 0
0.1864223314722898 0.1695432504203751 0
0.1531436832555838 0.1813811170603786 0
0.1651816120167829 0.1664478570769829 0
0.2695864435348144 0.23590812864299 0
0.1585745146998119 0.1598995396350286 0
0.1488318908275448 0.166423803917239 0
0.2330834451400118 0.2081906856270731 0
0.1268783627989844 0.308028744434614 0
0.1076613397129813 0.3245947382729109 0
0.334456627242638 0.3473988708446127 0
0.1760058629898532 0.1427422306322983 0
0.1808202202123064 0.09148844419425567 0
0.1638575715731891 0.07994574226092073 0
0.1470542349290326 0.1922466842521064 0
0.08511768548865113 0.2600300591790515 0
0.1676866994936594 0.1992860836424973 0
0.1713819993368295 0.1896626968593463 0
0.1723684175852652 0.1936761383563153 0
0.210863309394958 0.1711675905359852 0
0.2283795248272306 0.2114205562551833 0
0.2223094010767673 0.2053333333332938 0
0.2290737023787752 0.2058523435371069 0
0.2565119602730653 0.2059072011849251 0
0.2552143854117707 0.1957395332668037 0
0.3080129941191766 0.3503926346055503 0
0.2278585661361412 0.1881506740739648 0
0.2319849873967339 0.1911138654203497 0
0.3725793032548614 0.2270400423707959 0
0.2109545666695877 0.2281116696056459 0
0.5279785263667424 0.298445180507162 0
0.2681390245505414 0.07146579486424638 0
0.2871502581717537 0.08736239187325714 0
0.2791964489045257 0.1136181608606905 0
0.3055866252022771 0.1052735960888987 0
0.3122319865586712 0.07924847187689329 0
0.3319150492155727 0.09870891293552531 0
0.2977057958650208 0.1310377554383601 0
0.3393077395079007 0.07130650368399179 0
0.3591827384851958 0.09203184315067552 0
0.3181940319938578 0.05141822335589131 0
0.227721431458753 0.1927446990976387 0
0.2035677909121028 0.169013624585072 0
0.1889299784003386 0.1507551949842601 0
0.1471734705104234 0.09021476848777256 0
0.1682544122208148 0.3186885284429444 0
0.2279154222336478 0.2170885098361017 0
0.199573066480048 0.1725951663345946 0
0.1947424974402181 0.1715546306948192 0
0.2314040702154953 0.2204355637095808 0
0.1724054587810917 0.1994191581564648 0
0.1861177673540812 0.2289117688878128 0
0.1909836548624299 0.2288631254756853 0
0.1552650127878455 0.240409024149561 0
0.1740545860515576 0.2200070231719404 0
0.4596184057847943 0.3179993799852335 0
0.2771795078430186 0.1342935510753528 0
0.1810925624643051 0.2273470503001809 0
0.2063599537866289 0.2275383618318015 0
0.1392565794106776 0.1973269939978275 0
0.1742179996208363 0.3685647360761589 0
0.2442126231143751 0.1686226386541482 0
0.2794914515517506 0.3394505563150026 0
0.5149770408006843 0.33200285179873 0
0.1803642679002282 0.1684750791245102 0
0.0289508669783775 0.1795326699520351 0
0.03071421465344702 0.2116860281192253 0
0.349629905306883 0.1192676896937138 0
0.378525195510945 0.1131062872301717 0
0.3878205446848202 0.0851448704250337 0
0.4083764036626792 0.1075041115225991 0
0.4188847732359929 0.07859346486278555 0
0.4406147545335868 0.1016976669674515 0
0.4300791967724766 0.1322197627070367 0
0.4623994628924943 0.1269819495124662 0
0.473859224345951 0.09518596358607948 0
0.496551751899638 0.1213982489884842 0
0.4842403869078905 0.1536760014620012 0
0.5073273455899632 0.08903648615094815 0
0.5199263903212884 0.1478901293956408 0
0.5078532281416375 0.1791726194988994 0
0.1358625402945352 0.169357307518776 0
0.2580622119477384 0.1152984932500736 0
0.2225088063396106 0.2404019875952868 0
0.2173378419402175 0.1735710739900321 0
0.2308841818648697 0.1692066345892624 0
0.2207646694455886 0.2492928455319011 0
0.2276545876000203 0.2600615586265262 0
0.06637759884856595 0.08603412914785075 0
0.09899308685756252 0.07987337309957283 0
0.07876097755385535 0.05472208304542105 0
0.1134679629291088 0.1042852457080986 0
0.107683515893391 0.1273484195776045 0
0.09886339900521757 0.3703855083879026 0
0.1845411045304333 0.0688780743920938 0
0.202414715125846 0.04949674104430113 0
0.2290859446304792 0.05576017885543447 0
0.1742577850665182 0.03984229504712591 0
0.4178249221447106 0.03045837619847317 0
0.2143215697885978 0.2842435470071945 0
0.03277493130590133 0.299899097701254 0
0.175776183308063 0.2571458193563209 0
0.1431162354312959 0.2252261357123664 0
0.419181672146868 0.3664323289523961 0
0.395736535979525 0.3366168133297851 0
0.2342226255041783 0.1184316692314437 0
0.1427912196567772 0.06654896747208543 0
0.173401367226586 0.2097253643634824 0
0.1734350348692811 0.2055806696940934 0
0.2424682495312199 0.2990571801980849 0
0.2589131448354705 0.3163814011644507 0
0.1705040057801938 0.1821775830275154 0
0.151047153649414 0.2144376788643769 0
0.2250018914743586 0.2082739972974965 0
0.3234202545606211 0.1249920991476413 0
0.3144840792879089 0.1467610982595494 0
0.2827309925689595 0.3103416554470236 0
0.4998139753520706 0.03259515197927942 0
0.09237799834247461 0.1801429337271305 0
0.07862880949128279 0.1981220246763895 0
0.1754046175448451 0.1529786848913729 0
0.4994406969974284 0.3659680571175927 0
0.2460151150982043 0.1815453722995999 0
0.5658181050371845 0.2204885818485846 0
0.5302164045725989 0.2380251605227053 0
0.5601447201069361 0.1429132081299244 0
0.2839368278246763 0.2115035756539175 0
0.26641610337572 0.2130280746498996 0
0.5649896180407475 0.2987730248557635 0
0.03167686320706589 0.3389484407831972 0
0.06360821626455761 0.3198985114760415 0
0.2630724323176462 0.1880976745736635 0
0.1150698971051097 0.05627303978173518 0
0.2038120381614788 0.1737799546105029 0
0.1329029814571119 0.3348885970635019 0
0.1830447243047146 0.1736879799657568 0
0.1706651337504886 0.2427604630684202 0
0.3487057135428803 0.04095088256839129 0
0.1736139070563025 0.2243401418222867 0
0.1747181967230748 0.2160000000000104 0
0.4498668551681558 0.1611283720189898 0
0.4777406434728294 0.187132630712624 0
0.4512953118182423 0.06966935705763992 0
0.2436627496649892 0.1885416683441987 0
0.2925705261301872 0.06187609555870991 0
0.3914711323702266 0.2482377486803885 0
0.3780494310518749 0.2768934890265675 0
0.4043145530683002 0.3037626968557114 0
0.5318629480984999 0.1135135300604002 0
0.222339166458157 0.1948476732552029 0
0.2223746651597119 0.1893333333333102 0
0.435860491542048 0.2952853415990873 0
0.3544636372410962 0.2086518193712873 0
0.2225271639996907 0.2027741802150107 0
0.2250890273333103 0.201307572478341 0
0.2246488183703539 0.1975506082946821 0
0.228015505954119 0.199408330246918 0
0.2218594771810519 0.1974129896432857 0
0.2278016269509144 0.3698632552684489 0
0.5402260182082605 0.3611368068856829 0
0.1446663327924032 0.2378982735046212 0
0.5695648136240079 0.0609986019789449 0
0.2969045292001545 0.1471505204335628 0
0.3055953762784327 0.1660030463244249 0
0.2223094010767624 0.2133333333333138 0
0.2219241387255768 0.2080547994594747 0
0.2204335168844043 0.0272242500057951 0
0.2294192920382269 0.2254517964443662 0
0.2232411913512856 0.2184585429338839 0
0.2254887210847367 0.2045347795795119 0
0.295246656833304 0.03175027588636288 0
0.2371289731544798 0.1893811219152695 0
0.3632981597099604 0.1401233525376233 0
0.2313497972368733 0.1964462185691548 0
0.05638544655876256 0.2777457615178607 0
0.1946666666666299 0.1775823998814835 0
0.176987623734164 0.2052386489430333 0
0.2051746256107122 0.2224059850811711 0
0.2054302500828293 0.1772256696533291 0
0.2082853428862974 0.1747738047966488 0
0.1776121970468375 0.1946666666667068 0
0.1946666666667056 0.2223094010767672 0
0.1960000000000533 0.2250336169683333 0
0.1923460995326197 0.2249479340587089 0
0.1994015368762526 0.2252538186604415 0
0.1776021293706576 0.1920000000000293 0
0.1749611097091801 0.1906666666666897 0
0.1747771313237246 0.1876193299417903 0
0.2080199010638945 0.1777550032733543 0
0.2133329602693269 0.1775803495090822 0
0.1776905989232377 0.1866666666666859 0
0.1920949401804781 0.2219287563851062 0
0.1884849094086961 0.2254205071395502 0
0.1868133629075179 0.2224759923697071 0
0.1769581568622705 0.2104161515109678 0
0.1893333333333096 0.177690598923252 0
0.1905447804556386 0.1753200283113193 0
0.187241087121942 0.1748248098983566 0
0.21066666666669 0.222422888696558 0
0.5336446014643049 0.2046332877913086 0
0.2061954409948903 0.2568970841588389 0
0.1999963845948543 0.1776381112632963 0
0.2224107269534522 0.1839981082246656 0
0.2250477576882535 0.185395135607901 0
0.1776340997744268 0.2000948558988857 0
0.224875907087764 0.1906666666666381 0
0.1868467334168799 0.1779471302577084 0
0.2000000000000482 0.2223094010767485 0
0.1704453895713004 0.176181178327379 0
0.4028961701452549 0.1663751860543791 0
0.3341646903656996 0.2141875554040765 0
0.178040165966019 0.1839922521587289 0
0.3689930954944491 0.06336413334141573 0
0.211971285638172 0.1747963875796376 0
0.1811415879621001 0.2230925695415805 0
0.05369888764201608 0.1916751250165504 0
0.06202568594316347 0.2184869576269172 0
0.2463915670160842 0.3419826044825562 0
0.3633010333265412 0.3422576792908898 0
0.2714314583674549 0.14957920646553 0
0.2191108455099182 0.1773222697209373 0
0.2081332251938118 0.1515822580123939 0
0.1988494144732929 0.1481159004243862 0
0.1919403853220845 0.2490259199855179 0
0.1873077477405026 0.2569423485439588 0
0.2194979355701271 0.1570924787874966 0
0.2251650175303191 0.1528897506703675 0
0.2356344940255961 0.1943334810584249 0
0.14755883643564 0.1559950576094983 0
0.09845524501737271 0.02858018900519351 0
0.2160000000000105 0.2224411498524038 0
0.2146666666666769 0.2252352385870851 0
0.1810573449130583 0.177244368575884 0
0.195999999999962 0.1749289397772493 0
0.2245293926495252 0.2116722440438572 0
0.2914320917912072 0.1658791453614405 0
0.3259530709375312 0.2530158137418496 0
0.4838171829873699 0.06349613796348036 0
0.0560757068325337 0.02957932033277617 0
0.4315638332741981 0.3345100855669245 0
0.2559891908012177 0.2318074464744053 0
0.2652491129985851 0.2254798183103764 0
0.500176996350287 0.2375484630965174 0
0.4024336975058376 0.1339655974353659 0
0.4488084457590631 0.1988150923524626 0
0.19491141524116 0.1026862815560776 0
0.237212590948321 0.1703670016457107 0
0.2316333997442071 0.2022551574248355 0
0.1581496013365378 0.3399903916008153 0
0.1540148633050083 0.1883163839145573 0
0.2405298260374945 0.1280362208256087 0
0.2773305886554395 0.2247858479573844 0
0.153138601847492 0.2225292238998322 0
0.09873773786974752 0.1947423368191457 0
0.2221033953948309 0.300640355553432 0
0.1257701393882113 0.1213461175508295 0
0.233360579704606 0.1745734591040951 0
0.3242494942618481 0.163010926682573 0
0.4009306763134892 0.0576483298521315 0
0.1744836578526099 0.1963237870188728 0
0.4853483372742414 0.3362203328778305 0
0.1953994507157421 0.1548989241776945 0
0.1502704640088829 0.1096505920372559 0
0.1697652981215319 0.2033522935987831 0
0.1776905989232518 0.2160000000000099 0
0.2031060142132763 0.2250421935807202 0
0.1494930840435296 0.2075316190438247 0
0.2544599618512156 0.2134346238912371 0
0.2401710040576566 0.260625328856854 0
0.2348946266154557 0.2731447388478225 0
0.1482710648630698 0.2489893395808364 0
0.2029978156401022 0.2489423281519703 0
0.1002409347005772 0.2241500016931103 0
0.08254947795325904 0.2337120607046891 0
0.05980532349365667 0.2483396688741949 0
0.1406013263565295 0.2921824167166242 0
0.1472167999405544 0.3149336183375126 0
0.1249312640557214 0.0831736405029964 0
0.2093333333333643 0.2250792742677996 0
0.2318194435530737 0.1562475110166736 0
0.2843070117282541 0.2877295424724318 0
0.1907375405205689 0.1718053515531407 0
0.2479419939873682 0.1933629719537843 0
0.2289389392186507 0.2367214094993838 0
0.2601074628283613 0.1430880093308841 0
0.2651724170441058 0.1276573309227823 0
0.08833086625155798 0.3402408318638773 0
0.1055839529963813 0.257858104024217 0
0.1717680718089373 0.1858413089293262 0
0.1452682195995461 0.1759168858843887 0
0.2136838740247938 0.1556732475565681 0
0.2517753346446921 0.1876717313502693 0
0.2249569750352172 0.194019889443255 0
0.2301475662072198 0.1630410664027778 0
0.1453670575154513 0.1839261224570694 0
0.1770261935726181 0.2433564408521646 0
0.1748167611430698 0.2021327908086916 0
0.5396800798883992 0.07922711777058297 0
0.425637403084666 0.1574951299363317 0
0.1737489526807843 0.2994779540316427 0
0.5376496954752918 0.1715702954346444 0
0.1528886701331441 0.1742747037873852 0
0.2289471061745046 0.174219571732222 0
0.2020175399385598 0.2284803900082472 0
0.2009344610811366 0.1753507293334606 0
0.2245437516952005 0.1880303537640619 0
0.1688723162894933 0.1592698332836579 0
0.1846528094605632 0.224865420329865 0
0.197747129476201 0.2284286017430854 0
0.1949314472310459 0.2314855668212675 0
0.1640200463749237 0.2401428979687507 0
0.2018772860277002 0.3632730174155567 0
0.2223444584796838 0.2722404046791936 0
0.5140164034383073 0.06024427314759821 0
0.232197304987219 0.2302669246713546 0
0.3517254377353906 0.37212866848126 0
0.1753893218077032 0.1934285607679055 0
0.1954215665249573 0.02594805509152076 0
0.1720721443549075 0.1656161881876215 0
0.2346284231572142 0.2245588409998115 0
0.1931152475138307 0.1747998111621917 0
0.2546732367808859 0.05767827880328094 0
0.3500759167086814 0.2282633111211446 0
0.2278021286032182 0.1963096893454008 0
0.224673890398598 0.1826953507841817 0
0.5032870520027943 0.2099537200247157 0
0.1987674490978588 0.1756253446454452 0
0.155468192738579 0.1520835560139896 0
0.08366824696024672 0.2158329356882088 0
0.3654741625403983 0.2495270489581 0
0.171045502866315 0.2181576749096014 0
0.02928203230285854 0.3707179676971918 0
0.174627545667405 0.2127563208208699 0
0.2247395276275663 0.2146479127036802 0
0.2072251358982289 0.1709510127029712 0
0.5707179676971842 0.3707179676971391 0
0.5707179676971399 0.02928203230281151 0
0.08915622573872074 0.3151414255280026 0
0.2361106853382763 0.2041783815213052 0
0.1990216188559761 0.1389901868083248 0
0.1820900081602351 0.1489756192452365 0
0.1880277767349433 0.1417036457986328 0
0.1422790058082776 0.2051176599270579 0
0.2140127679451595 0.1722245210365729 0
0.2145305234817892 0.1751422322686017 0
0.2161250840424522 0.2592204846108297 0
0.1703744180888232 0.2217997316849498 0
0.2117909133339332 0.224653518165885 0
0.04035489832608663 0.2369325340190089 0
0.3006930698102663 0.3007024255447411 0
0.3263886374097279 0.02596521611174989 0
0.1624137951758298 0.05878606781380977 0
0.2926943745271011 0.3718851235066714 0
0.1944016662204699 0.2277517690134161 0
0.2482465286065751 0.1750402568662577 0
0.3444932857303866 0.2464184008810795 0
0.2636716570559104 0.201528784898682 0
0.2312537944230822 0.2865326687226581 0
0.217254967444846 0.2247800932675464 0
0.02535324512803257 0.02513177991849073 0
0.2066666666667037 0.2245966892533331 0
0.5385474412821227 0.2708993250854084 0
0.1385891991824612 0.159688292975875 0
0.2239185181392537 0.2340856683116872 0
0.1772213776771081 0.2254334727639959 0
0.1735617138631188 0.2491260518137278 0
0.138952217810504 0.1890012003872077 0
0.1754035707955217 0.1990607850432596 0
0.3213778867249995 0.3683610594876189 0
0.1963664957350443 0.08574045564610189 0
0.1706516054015307 0.1968113752039248 0
0.2278600712990296 0.2026716366533426 0
0.2037289051952262 0.2430479833607843 0
0.1693253724128035 0.1704607238021962 0
0.2843500125109499 0.1448520818464976 0
0.1970911910090836 0.255175527846399 0
0.3820858948809962 0.1338537274628823 0
0.1130589659313466 0.3471948685848844 0
0.2457735359266765 0.1184101161728151 0
0.05061751451842775 0.1667611071556317 0
0.1335695567408939 0.1047263774161746 0
0.1757691603950169 0.2077797141253224 0
0.282145346771888 0.2368529422330674 0
0.4304603973383809 0.05539154385142171 0
0.5449543195301498 0.3229346731323301 0
0.2738945272745618 0.05085187113467488 0
$EndNodes
$Elements
17 1562 1 1562
0 1 15 1
1 1 
0 2 15 1
2 2 
0 3 15 1
3 3 
0 4 15 1
4 4 
0 5 15 1
5 5 
0 6 15 1
6 6 
0 7 15 1
7 7 
0 8 15 1
8 8 
1 1 1 15
9 1 9 
10 9 10 
11 10 11 
12 11 12 
13 12 13 
14 13 14 
15 14 15 
16 15 16 
17 16 17 
18 17 18 
19 18 19 
20 19 20 
21 20 21 
22 21 22 
23 22 2 
1 2 1 10
24 2 23 
25 23 24 
26 24 25 
27 25 26 
28 26 27 
29 27 28 
30 28 29 
31 29 30 
32 30 31 
33 31 3 
1 3 1 15
34 3 32 
35 32 33 
36 33 34 
37 34 35 
38 35 36 
39 36 37 
40 37 38 
41 38 39 
42 39 40 
43 40 41 
44 41 42 
45 42 43 
46 43 44 
47 44 45 
48 45 4 
1 4 1 10
49 4 46 
50 46 47 
51 47 48 
52 48 49 
53 49 50 
54 50 51 
55 51 52 
56 52 53 
57 53 54 
58 54 1 
1 5 1 15
59 5 55 
60 55 56 
61 56 57 
62 57 58 
63 58 59 
64 59 60 
65 60 61 
66 61 62 
67 62 63 
68 63 64 
69 64 65 
70 65 66 
71 66 67 
72 67 68 
73 68 6 
1 6 1 15
74 6 69 
75 69 70 
76 70 71 
77 71 72 
78 72 73 
79 73 74 
80 74 75 
81 75 76 
82 76 77 
83 77 78 
84 78 79 
85 79 80 
86 80 81 
87 81 82 
88 82 7 
1 7 1 15
89 7 83 
90 83 84 
91 84 85 
92 85 86 
93 86 87 
94 87 88 
95 88 89 
96 89 90 
97 90 91 
98 91 92 
99 92 93 
100 93 94 
101 94 95 
102 95 96 
103 96 8 
1 8 1 15
104 8 97 
105 97 98 
106 98 99 
107 99 100 
108 100 101 
109 101 102 
110 102 103 
111 103 104 
112 104 105 
113 105 106 
114 106 107 
115 107 108 
116 108 109 
117 109 110 
118 110 5 
2 1 2 1444
119 397 240 698 
120 484 483 647 
121 395 397 698 
122 252 407 665 
123 260 483 484 
124 547 541 684 
125 550 373 609 
126 373 374 609 
127 614 435 733 
128 539 543 631 
129 227 229 233 
130 233 242 261 
131 494 504 644 
132 541 547 549 
133 407 252 679 
134 249 475 675 
135 342 503 680 
136 353 508 741 
137 127 12 489 
138 198 196 555 
139 260 141 480 
140 317 522 566 
141 154 150 451 
142 506 217 507 
143 154 451 734 
144 233 229 242 
145 459 217 506 
146 296 391 538 
147 494 232 504 
148 438 560 725 
149 305 452 640 
150 456 392 710 
151 438 297 560 
152 399 381 412 
153 415 519 659 
154 437 305 640 
155 222 226 227 
156 295 476 612 
157 7 82 560 
158 282 475 478 
159 731 614 733 
160 227 226 229 
161 626 412 725 
162 421 307 450 
163 230 532 636 
164 265 399 730 
165 131 140 141 
166 392 378 600 
167 571 113 580 
168 365 434 439 
169 474 425 677 
170 449 606 699 
171 281 307 421 
172 519 266 659 
173 146 145 147 
174 242 249 675 
175 353 454 508 
176 403 166 733 
177 332 334 388 
178 144 143 145 
179 445 246 662 
180 142 141 143 
181 232 154 734 
182 141 140 480 
183 382 299 488 
184 173 171 246 
185 332 388 722 
186 449 326 756 
187 476 291 612 
188 342 344 503 
189 366 365 440 
190 336 408 655 
191 425 448 677 
192 341 409 410 
193 265 263 381 
194 320 322 443 
195 341 342 409 
196 175 493 616 
197 365 362 434 
198 131 141 142 
199 489 12 709 
200 496 539 631 
201 113 571 605 
202 322 326 449 
203 304 282 478 
204 334 336 384 
205 237 175 616 
206 297 438 441 
207 320 444 701 
208 429 506 507 
209 203 198 555 
210 142 143 144 
211 447 133 631 
212 183 185 234 
213 144 145 146 
214 621 482 630 
215 285 273 302 
216 434 360 726 
217 336 338 408 
218 386 568 688 
219 576 657 695 
220 435 614 653 
221 146 147 148 
222 412 381 438 
223 522 492 566 
224 519 415 748 
225 334 384 388 
226 150 148 178 
227 352 296 538 
228 128 488 558 
229 496 352 539 
230 366 440 673 
231 399 412 414 
232 362 360 434 
233 177 175 237 
234 348 527 589 
235 162 164 240 
236 265 381 399 
237 451 150 758 
238 480 137 482 
239 471 517 692 
240 338 341 408 
241 143 260 484 
242 532 533 636 
243 517 471 540 
244 412 438 725 
245 123 525 570 
246 499 500 773 
247 547 684 715 
248 548 565 639 
249 299 301 488 
250 180 183 372 
251 425 429 448 
252 160 552 662 
253 82 298 560 
254 48 126 492 
255 260 480 481 
256 156 154 232 
257 160 158 552 
258 166 179 733 
259 416 523 748 
260 476 295 736 
261 338 340 341 
262 133 447 652 
263 384 336 655 
264 360 358 411 
265 575 117 583 
266 527 348 624 
267 216 518 519 
268 131 52 140 
269 352 496 610 
270 138 522 678 
271 183 184 185 
272 195 216 523 
273 180 182 183 
274 17 119 529 
275 523 216 748 
276 388 384 499 
277 202 474 677 
278 175 173 493 
279 410 409 578 
280 202 642 770 
281 148 147 473 
282 399 414 639 
283 10 621 630 
284 381 263 441 
285 166 168 179 
286 488 128 713 
287 368 366 393 
288 474 202 770 
289 187 189 251 
290 505 112 557 
291 49 458 740 
292 364 362 365 
293 307 315 695 
294 273 265 730 
295 240 164 403 
296 744 417 760 
297 261 242 706 
298 413 505 557 
299 379 392 456 
300 216 197 518 
301 138 521 522 
302 414 412 505 
303 396 227 632 
304 429 426 506 
305 50 457 458 
306 576 695 700 
307 316 320 701 
308 443 322 449 
309 240 403 512 
310 448 611 676 
311 543 447 631 
312 320 443 444 
313 164 166 403 
314 307 308 315 
315 452 305 703 
316 588 589 673 
317 246 171 662 
318 495 120 496 
319 49 50 458 
320 279 421 623 
321 341 340 342 
322 117 584 585 
323 454 129 609 
324 129 454 744 
325 42 130 452 
326 262 261 263 
327 222 225 226 
328 437 259 691 
329 475 249 478 
330 383 425 474 
331 17 529 742 
332 112 505 626 
333 570 525 571 
334 453 314 638 
335 210 219 222 
336 173 246 493 
337 147 151 152 
338 291 287 612 
339 260 481 483 
340 379 527 624 
341 393 366 673 
342 618 185 671 
343 320 321 322 
344 304 478 737 
345 365 439 440 
346 222 227 396 
347 409 342 680 
348 332 333 334 
349 418 419 433 
350 482 137 630 
351 191 193 228 
352 44 138 485 
353 516 354 634 
354 222 396 774 
355 150 178 758 
356 177 237 312 
357 251 189 453 
358 281 283 307 
359 36 120 495 
360 352 538 539 
361 293 418 595 
362 14 128 558 
363 568 500 688 
364 592 304 737 
365 19 132 490 
366 51 131 457 
367 371 456 710 
368 279 281 421 
369 538 391 721 
370 665 407 666 
371 178 148 473 
372 183 182 184 
373 429 507 554 
374 179 168 180 
375 39 40 129 
376 51 52 131 
377 42 43 130 
378 48 49 126 
379 11 12 127 
380 14 15 128 
381 246 445 702 
382 38 744 760 
383 217 459 564 
384 263 261 711 
385 158 156 494 
386 329 331 332 
387 601 635 690 
388 235 511 645 
389 266 519 633 
390 358 311 476 
391 523 416 683 
392 502 454 609 
393 172 171 173 
394 601 220 635 
395 354 516 753 
396 444 443 584 
397 156 232 494 
398 314 453 746 
399 233 261 262 
400 129 550 609 
401 418 433 597 
402 130 43 485 
403 185 187 671 
404 170 160 171 
405 185 186 187 
406 492 126 566 
407 149 148 150 
408 364 365 366 
409 551 455 776 
410 439 434 525 
411 293 306 418 
412 496 120 610 
413 599 309 657 
414 309 569 657 
415 396 632 633 
416 379 456 527 
417 647 483 772 
418 360 411 726 
419 408 341 762 
420 140 137 480 
421 264 263 265 
422 179 731 733 
423 407 566 666 
424 347 379 624 
425 17 18 119 
426 448 429 766 
427 152 161 162 
428 425 426 429 
429 127 524 621 
430 571 411 605 
431 119 18 490 
432 240 397 719 
433 147 145 151 
434 655 442 688 
435 454 502 508 
436 316 319 320 
437 117 575 584 
438 126 49 740 
439 375 494 644 
440 47 48 492 
441 275 533 717 
442 127 489 743 
443 183 234 372 
444 334 335 336 
445 392 600 765 
446 368 393 456 
447 440 439 625 
448 153 150 154 
449 505 413 561 
450 136 551 776 
451 236 647 772 
452 657 569 752 
453 448 676 677 
454 287 6 612 
455 272 265 273 
456 143 141 260 
457 185 184 186 
458 234 185 618 
459 116 586 773 
460 11 127 621 
461 555 196 627 
462 329 332 738 
463 53 137 140 
464 582 377 603 
465 566 126 666 
466 158 494 552 
467 177 312 491 
468 443 449 699 
469 411 358 735 
470 387 606 756 
471 201 554 627 
472 36 37 120 
473 152 162 620 
474 499 384 500 
475 41 42 452 
476 326 329 530 
477 383 424 425 
478 588 673 712 
479 421 450 670 
480 533 472 717 
481 189 191 453 
482 504 232 658 
483 527 393 589 
484 517 125 692 
485 514 314 746 
486 50 51 457 
487 426 428 506 
488 52 53 140 
489 191 228 746 
490 322 325 326 
491 128 15 562 
492 428 459 506 
493 216 519 748 
494 133 35 495 
495 180 372 731 
496 302 273 730 
497 481 482 524 
498 336 337 338 
499 458 457 607 
500 300 383 474 
501 372 234 613 
502 210 222 774 
503 240 512 698 
504 162 240 719 
505 284 273 285 
506 5 347 624 
507 135 517 540 
508 259 437 668 
509 501 374 646 
510 378 376 600 
511 34 133 513 
512 456 393 527 
513 47 492 521 
514 222 219 225 
515 615 318 663 
516 324 493 757 
517 454 417 744 
518 147 152 754 
519 498 127 743 
520 428 431 459 
521 187 251 671 
522 162 163 164 
523 376 503 600 
524 155 154 156 
525 515 134 516 
526 507 217 649 
527 35 36 495 
528 195 197 216 
529 348 589 598 
530 459 460 564 
531 494 375 552 
532 305 373 703 
533 174 173 175 
534 394 681 693 
535 226 269 660 
536 247 300 497 
537 586 499 773 
538 473 398 681 
539 142 144 267 
540 667 259 668 
541 145 143 484 
542 251 453 638 
543 413 545 561 
544 374 501 502 
545 21 139 509 
546 452 130 640 
547 19 20 132 
548 420 215 537 
549 43 44 485 
550 585 584 699 
551 18 19 490 
552 125 27 515 
553 513 455 551 
554 473 147 754 
555 34 35 133 
556 139 553 689 
557 338 339 340 
558 133 495 631 
559 127 498 524 
560 242 229 249 
561 176 175 177 
562 132 20 509 
563 285 302 619 
564 135 25 517 
565 521 492 522 
566 485 138 678 
567 171 160 662 
568 332 331 333 
569 477 251 638 
570 139 689 705 
571 353 417 454 
572 312 237 592 
573 146 148 149 
574 311 291 476 
575 197 199 518 
576 357 311 358 
577 307 283 308 
578 44 45 138 
579 53 54 137 
580 12 13 709 
581 33 34 513 
582 277 297 559 
583 550 41 703 
584 170 171 172 
585 134 29 520 
586 410 578 708 
587 453 191 746 
588 565 302 639 
589 40 41 550 
590 589 393 673 
591 164 165 166 
592 26 125 517 
593 28 134 515 
594 26 27 125 
595 228 523 683 
596 267 144 510 
597 606 449 756 
598 30 136 520 
599 297 441 559 
600 199 206 518 
601 681 394 686 
602 563 285 619 
603 179 180 731 
604 28 29 134 
605 233 262 632 
606 267 510 511 
607 27 28 515 
608 687 324 757 
609 24 25 135 
610 462 464 465 
611 125 515 591 
612 253 407 679 
613 25 26 517 
614 20 21 509 
615 129 40 550 
616 30 31 136 
617 371 368 456 
618 399 639 730 
619 21 22 139 
620 469 472 533 
621 180 181 182 
622 400 667 668 
623 152 151 161 
624 29 30 520 
625 465 466 532 
626 418 306 419 
627 437 640 668 
628 359 358 360 
629 228 193 523 
630 157 156 158 
631 227 233 632 
632 41 452 703 
633 38 39 744 
634 433 419 565 
635 342 343 344 
636 459 431 460 
637 466 468 469 
638 707 38 760 
639 46 47 521 
640 673 440 712 
641 493 324 616 
642 511 235 720 
643 554 555 627 
644 387 8 606 
645 490 132 775 
646 408 442 655 
647 425 424 426 
648 466 469 532 
649 469 471 472 
650 15 16 562 
651 535 285 563 
652 199 205 206 
653 613 234 682 
654 334 333 335 
655 576 599 657 
656 398 473 754 
657 579 377 582 
658 215 231 537 
659 591 516 717 
660 187 188 189 
661 499 586 724 
662 315 308 316 
663 457 131 771 
664 294 292 648 
665 231 255 256 
666 213 420 544 
667 166 167 168 
668 213 215 420 
669 303 355 447 
670 244 7 560 
671 9 10 630 
672 525 123 696 
673 32 33 551 
674 520 422 753 
675 320 319 321 
676 189 190 191 
677 206 209 210 
678 144 146 510 
679 149 150 153 
680 262 263 264 
681 438 381 441 
682 146 149 510 
683 23 24 553 
684 361 360 362 
685 596 386 688 
686 545 546 561 
687 226 225 269 
688 211 207 217 
689 465 464 466 
690 322 321 325 
691 296 224 391 
692 37 38 707 
693 391 224 628 
694 303 447 543 
695 493 246 757 
696 570 571 580 
697 300 474 770 
698 524 482 621 
699 275 241 636 
700 231 256 537 
701 134 520 753 
702 469 468 471 
703 358 476 735 
704 416 674 683 
705 33 513 551 
706 554 507 555 
707 522 317 729 
708 429 554 766 
709 191 192 193 
710 516 634 717 
711 532 469 533 
712 274 241 275 
713 511 510 645 
714 131 142 771 
715 537 256 538 
716 460 462 635 
717 16 17 742 
718 264 265 272 
719 341 410 762 
720 210 218 219 
721 355 422 455 
722 363 362 364 
723 162 161 163 
724 239 177 491 
725 187 186 188 
726 256 255 543 
727 500 568 773 
728 153 154 155 
729 441 263 711 
730 253 317 407 
731 178 473 681 
732 500 655 688 
733 24 135 553 
734 658 232 734 
735 466 467 468 
736 640 526 668 
737 73 72 111 
738 481 480 482 
739 714 721 747 
740 159 158 160 
741 468 467 470 
742 221 214 230 
743 596 688 759 
744 217 207 649 
745 172 173 174 
746 336 335 337 
747 462 463 464 
748 428 430 431 
749 206 205 209 
750 251 477 685 
751 394 641 686 
752 247 299 300 
753 538 256 539 
754 326 328 329 
755 515 516 591 
756 620 162 719 
757 39 129 744 
758 537 538 721 
759 355 354 422 
760 455 513 652 
761 374 502 609 
762 426 427 428 
763 373 271 374 
764 505 412 626 
765 464 463 534 
766 466 464 467 
767 303 354 355 
768 130 485 769 
769 367 366 368 
770 460 461 462 
771 301 486 487 
772 471 468 540 
773 132 509 629 
774 272 273 284 
775 257 351 353 
776 76 75 121 
777 530 329 738 
778 513 133 652 
779 119 490 650 
780 338 337 339 
781 468 470 540 
782 203 555 649 
783 262 266 632 
784 564 460 768 
785 255 274 303 
786 231 241 255 
787 231 221 241 
788 255 241 274 
789 303 274 354 
790 481 524 669 
791 255 303 543 
792 208 212 213 
793 608 665 666 
794 539 256 543 
795 483 481 669 
796 204 208 544 
797 13 14 558 
798 215 221 231 
799 164 163 165 
800 460 635 768 
801 400 238 667 
802 534 132 629 
803 460 431 461 
804 467 464 534 
805 45 4 723 
806 4 46 723 
807 193 192 194 
808 304 592 663 
809 242 675 706 
810 342 340 343 
811 191 190 192 
812 344 345 349 
813 660 269 661 
814 169 160 170 
815 215 214 221 
816 462 461 463 
817 532 230 690 
818 301 487 488 
819 72 71 542 
820 189 188 190 
821 210 209 218 
822 651 442 762 
823 75 74 549 
824 31 3 727 
825 3 32 727 
826 22 2 728 
827 2 23 728 
828 374 271 646 
829 428 427 430 
830 208 211 212 
831 495 496 631 
832 80 79 112 
833 155 156 157 
834 204 207 208 
835 77 76 545 
836 533 275 636 
837 353 402 417 
838 213 214 215 
839 200 198 203 
840 297 244 560 
841 249 229 660 
842 176 177 239 
843 174 175 176 
844 422 354 753 
845 257 296 351 
846 351 296 352 
847 276 238 400 
848 370 368 371 
849 300 382 383 
850 180 168 181 
851 401 400 526 
852 257 224 296 
853 193 195 523 
854 528 246 702 
855 199 198 200 
856 212 211 220 
857 357 358 359 
858 211 217 564 
859 714 420 721 
860 607 511 608 
861 213 212 214 
862 518 206 643 
863 426 424 427 
864 199 200 205 
865 355 455 652 
866 382 488 713 
867 79 78 557 
868 208 207 211 
869 74 73 541 
870 491 312 704 
871 329 330 331 
872 293 595 716 
873 193 194 195 
874 503 344 600 
875 200 203 204 
876 383 423 424 
877 128 562 777 
878 204 203 207 
879 258 305 437 
880 344 349 600 
881 269 270 501 
882 623 421 739 
883 235 664 720 
884 641 406 686 
885 219 218 223 
886 63 62 123 
887 105 104 122 
888 91 90 124 
889 92 91 573 
890 93 92 583 
891 59 58 114 
892 101 100 116 
893 66 65 113 
894 108 107 115 
895 87 86 118 
896 94 93 117 
897 625 439 718 
898 184 182 497 
899 529 119 604 
900 208 213 544 
901 586 385 724 
902 353 351 402 
903 157 158 159 
904 107 106 577 
905 405 250 436 
906 166 165 167 
907 430 427 432 
908 182 181 247 
909 194 192 201 
910 65 64 580 
911 502 270 508 
912 531 388 724 
913 106 105 572 
914 258 437 691 
915 635 465 690 
916 524 498 669 
917 71 70 289 
918 60 59 567 
919 62 61 593 
920 78 77 413 
921 102 101 568 
922 104 103 596 
923 554 201 766 
924 81 80 556 
925 430 432 529 
926 462 465 635 
927 64 63 570 
928 230 214 601 
929 209 205 268 
930 565 548 715 
931 197 198 199 
932 277 244 297 
933 70 69 594 
934 100 99 586 
935 223 224 257 
936 407 317 566 
937 313 514 535 
938 526 130 769 
939 88 87 569 
940 90 89 599 
941 61 60 369 
942 470 467 629 
943 182 247 497 
944 431 430 604 
945 610 120 707 
946 575 444 584 
947 359 360 361 
948 571 525 726 
949 69 6 286 
950 109 108 582 
951 461 431 604 
952 103 102 386 
953 288 292 293 
954 424 423 536 
955 427 424 536 
956 402 610 707 
957 497 300 770 
958 326 325 328 
959 257 353 741 
960 197 196 198 
961 616 615 767 
962 293 294 306 
963 95 94 585 
964 195 194 196 
965 281 282 283 
966 229 226 660 
967 389 277 559 
968 354 274 634 
969 223 218 224 
970 110 109 603 
971 684 433 715 
972 99 98 385 
973 519 518 643 
974 313 535 563 
975 86 85 590 
976 58 57 587 
977 225 219 672 
978 344 343 345 
979 89 88 309 
980 410 651 762 
981 111 72 542 
982 241 221 636 
983 514 228 683 
984 245 279 750 
985 245 278 279 
986 204 544 602 
987 195 196 197 
988 568 116 773 
989 5 110 346 
990 67 66 581 
991 364 366 367 
992 436 250 654 
993 531 385 656 
994 300 299 382 
995 349 350 395 
996 288 293 716 
997 120 37 707 
998 159 160 169 
999 361 362 363 
1000 279 280 281 
1001 486 301 761 
1002 487 486 489 
1003 151 145 484 
1004 96 95 323 
1005 82 81 298 
1006 314 294 648 
1007 501 270 502 
1008 214 212 601 
1009 615 663 767 
1010 376 346 377 
1011 433 565 715 
1012 414 505 561 
1013 121 75 549 
1014 316 318 319 
1015 212 220 601 
1016 73 111 541 
1017 430 529 604 
1018 220 211 564 
1019 276 400 401 
1020 665 608 720 
1021 675 389 706 
1022 274 275 634 
1023 267 511 607 
1024 169 170 238 
1025 343 340 641 
1026 85 84 254 
1027 200 204 602 
1028 500 384 655 
1029 76 121 545 
1030 57 56 598 
1031 125 591 692 
1032 654 236 772 
1033 388 499 724 
1034 258 239 271 
1035 578 409 579 
1036 237 616 767 
1037 415 284 416 
1038 315 316 701 
1039 356 311 357 
1040 181 168 637 
1041 562 16 742 
1042 339 390 406 
1043 130 526 640 
1044 540 470 689 
1045 604 119 650 
1046 270 225 672 
1047 269 225 270 
1048 405 436 498 
1049 351 352 610 
1050 8 96 606 
1051 84 83 622 
1052 68 67 295 
1053 461 604 650 
1054 546 121 547 
1055 383 382 423 
1056 205 200 602 
1057 432 427 536 
1058 305 271 373 
1059 253 276 317 
1060 404 405 486 
1061 163 161 236 
1062 137 54 751 
1063 10 11 621 
1064 600 349 765 
1065 467 534 629 
1066 290 287 291 
1067 526 400 668 
1068 192 190 611 
1069 442 408 762 
1070 367 368 370 
1071 479 249 660 
1072 509 139 705 
1073 188 186 202 
1074 310 291 311 
1075 335 333 504 
1076 153 155 235 
1077 83 7 243 
1078 176 239 258 
1079 397 350 398 
1080 6 68 612 
1081 617 234 618 
1082 221 230 636 
1083 447 355 652 
1084 488 487 558 
1085 169 238 253 
1086 620 398 754 
1087 132 534 775 
1088 135 540 689 
1089 666 126 740 
1090 206 210 774 
1091 401 678 729 
1092 372 613 614 
1093 253 238 276 
1094 56 55 348 
1095 167 250 404 
1096 329 328 330 
1097 370 371 512 
1098 402 351 610 
1099 664 665 720 
1100 411 571 726 
1101 258 271 305 
1102 404 250 405 
1103 157 159 252 
1104 115 578 579 
1105 247 248 299 
1106 419 306 563 
1107 74 541 549 
1108 340 339 641 
1109 349 345 350 
1110 450 307 695 
1111 112 79 557 
1112 465 532 690 
1113 391 628 747 
1114 331 330 375 
1115 268 205 602 
1116 339 337 390 
1117 345 343 394 
1118 573 574 575 
1119 310 356 477 
1120 397 398 620 
1121 167 165 250 
1122 373 550 703 
1123 269 501 749 
1124 678 401 769 
1125 670 450 752 
1126 535 514 683 
1127 418 597 697 
1128 547 121 549 
1129 574 124 576 
1130 168 167 637 
1131 608 511 720 
1132 432 536 562 
1133 46 521 723 
1134 501 646 749 
1135 377 346 603 
1136 71 289 542 
1137 478 249 479 
1138 247 181 248 
1139 420 537 721 
1140 272 284 415 
1141 395 350 397 
1142 55 5 624 
1143 286 6 287 
1144 463 461 650 
1145 306 294 313 
1146 385 531 724 
1147 80 112 556 
1148 293 292 294 
1149 228 514 746 
1150 316 308 318 
1151 299 248 301 
1152 262 264 266 
1153 413 77 545 
1154 361 363 613 
1155 602 544 714 
1156 367 370 435 
1157 356 357 380 
1158 321 319 324 
1159 327 446 531 
1160 436 654 772 
1161 406 390 451 
1162 172 174 259 
1163 633 519 643 
1164 98 97 656 
1165 613 363 614 
1166 375 330 445 
1167 243 7 244 
1168 5 346 347 
1169 364 367 653 
1170 363 364 653 
1171 224 218 628 
1172 510 149 645 
1173 234 617 682 
1174 78 413 557 
1175 201 192 611 
1176 422 520 776 
1177 91 124 573 
1178 92 573 583 
1179 117 93 583 
1180 458 607 608 
1181 347 378 379 
1182 32 551 727 
1183 394 343 641 
1184 115 107 577 
1185 268 602 714 
1186 218 209 628 
1187 588 587 589 
1188 555 507 649 
1189 544 420 714 
1190 508 270 672 
1191 138 45 723 
1192 113 65 580 
1193 239 491 646 
1194 23 553 728 
1195 105 122 572 
1196 328 325 528 
1197 313 294 314 
1198 611 448 766 
1199 326 530 756 
1200 59 114 567 
1201 123 62 593 
1202 416 284 674 
1203 339 406 641 
1204 439 525 696 
1205 54 1 751 
1206 1 9 751 
1207 283 282 304 
1208 101 116 568 
1209 122 104 596 
1210 106 572 577 
1211 573 575 583 
1212 63 123 570 
1213 357 359 617 
1214 516 134 753 
1215 116 100 586 
1216 704 661 749 
1217 196 194 627 
1218 565 419 619 
1219 267 607 771 
1220 219 223 672 
1221 87 118 569 
1222 124 90 599 
1223 313 314 514 
1224 375 445 552 
1225 64 570 580 
1226 108 115 582 
1227 319 318 615 
1228 310 311 356 
1229 545 121 546 
1230 279 623 750 
1231 546 547 548 
1232 470 629 705 
1233 289 70 594 
1234 491 704 749 
1235 111 542 597 
1236 661 269 749 
1237 282 280 475 
1238 94 117 585 
1239 472 471 692 
1240 369 60 567 
1241 61 369 593 
1242 632 266 633 
1243 521 138 723 
1244 209 268 628 
1245 194 201 627 
1246 248 181 637 
1247 376 377 503 
1248 386 102 568 
1249 103 386 596 
1250 380 618 671 
1251 118 86 590 
1252 576 124 599 
1253 136 31 727 
1254 186 184 642 
1255 114 58 587 
1256 69 286 594 
1257 608 666 740 
1258 520 136 776 
1259 349 395 765 
1260 139 22 728 
1261 279 278 280 
1262 477 638 648 
1263 695 315 700 
1264 66 113 581 
1265 184 497 642 
1266 281 280 282 
1267 207 203 649 
1268 115 579 582 
1269 525 434 726 
1270 479 660 661 
1271 288 287 290 
1272 99 385 586 
1273 553 135 689 
1274 288 290 292 
1275 478 479 737 
1276 479 704 737 
1277 109 582 603 
1278 472 591 717 
1279 309 88 569 
1280 89 309 599 
1281 306 313 563 
1282 591 472 692 
1283 450 657 752 
1284 238 170 667 
1285 440 625 712 
1286 396 633 643 
1287 380 617 618 
1288 298 81 556 
1289 149 153 645 
1290 161 151 647 
1291 681 398 693 
1292 327 531 656 
1293 271 239 646 
1294 284 285 674 
1295 572 122 651 
1296 331 375 644 
1297 346 110 603 
1298 290 291 310 
1299 643 206 774 
1300 286 287 288 
1301 380 357 617 
1302 167 404 637 
1303 512 403 732 
1304 556 112 626 
1305 115 577 578 
1306 648 292 694 
1307 630 137 751 
1308 333 331 644 
1309 278 277 389 
1310 323 95 585 
1311 347 346 376 
1312 246 528 757 
1313 551 136 727 
1314 562 536 777 
1315 289 594 595 
1316 639 414 763 
1317 455 422 776 
1318 285 535 674 
1319 170 172 667 
1320 337 335 658 
1321 388 531 722 
1322 595 418 697 
1323 310 477 694 
1324 458 608 740 
1325 553 139 728 
1326 302 565 619 
1327 552 445 662 
1328 369 567 625 
1329 377 579 680 
1330 230 601 690 
1331 650 490 775 
1332 367 435 653 
1333 398 350 693 
1334 581 113 605 
1335 347 376 378 
1336 573 124 574 
1337 85 254 590 
1338 165 163 654 
1339 190 188 676 
1340 587 57 598 
1341 97 8 327 
1342 678 522 729 
1343 317 276 729 
1344 463 650 775 
1345 446 387 530 
1346 264 272 659 
1347 324 319 615 
1348 611 190 676 
1349 706 559 711 
1350 169 253 679 
1351 114 587 588 
1352 475 280 755 
1353 324 615 616 
1354 638 314 648 
1355 629 509 705 
1356 548 639 763 
1357 245 244 277 
1358 442 651 759 
1359 498 436 669 
1360 380 671 685 
1361 283 304 764 
1362 589 587 598 
1363 295 67 581 
1364 155 157 664 
1365 118 590 670 
1366 245 277 278 
1367 646 491 749 
1368 404 486 761 
1369 96 323 606 
1370 664 252 665 
1371 236 161 647 
1372 579 409 680 
1373 614 363 653 
1374 489 486 743 
1375 432 562 742 
1376 419 563 619 
1377 153 235 645 
1378 202 186 642 
1379 243 244 245 
1380 254 84 622 
1381 250 165 654 
1382 504 333 644 
1383 574 576 700 
1384 151 484 647 
1385 444 575 745 
1386 379 378 392 
1387 163 236 654 
1388 201 611 766 
1389 176 258 691 
1390 157 252 664 
1391 486 405 743 
1392 335 504 658 
1393 372 614 731 
1394 607 457 771 
1395 672 223 741 
1396 548 547 715 
1397 223 257 741 
1398 323 585 699 
1399 56 348 598 
1400 592 237 767 
1401 235 155 664 
1402 732 403 733 
1403 390 337 658 
1404 83 243 622 
1405 385 98 656 
1406 174 176 691 
1407 512 371 698 
1408 159 169 679 
1409 68 295 612 
1410 676 202 677 
1411 485 678 769 
1412 327 387 446 
1413 559 441 711 
1414 445 330 702 
1415 276 401 729 
1416 325 321 687 
1417 361 613 682 
1418 254 622 623 
1419 13 558 709 
1420 272 415 659 
1421 172 259 667 
1422 534 463 775 
1423 188 202 676 
1424 541 111 684 
1425 252 159 679 
1426 674 535 683 
1427 359 361 682 
1428 178 681 686 
1429 123 593 696 
1430 266 264 659 
1431 671 251 685 
1432 639 302 730 
1433 663 318 764 
1434 327 8 387 
1435 477 356 685 
1436 634 275 717 
1437 529 432 742 
1438 584 443 699 
1439 397 620 719 
1440 669 436 772 
1441 508 672 741 
1442 348 55 624 
1443 688 442 759 
1444 321 324 687 
1445 451 390 734 
1446 704 312 737 
1447 370 512 732 
1448 423 382 713 
1449 356 380 685 
1450 635 220 768 
1451 435 370 732 
1452 345 394 693 
1453 479 661 704 
1454 304 663 764 
1455 528 325 687 
1456 389 675 755 
1457 259 174 691 
1458 483 669 772 
1459 503 377 680 
1460 487 489 709 
1461 477 648 694 
1462 405 498 743 
1463 721 391 747 
1464 350 345 693 
1465 689 470 705 
1466 332 722 738 
1467 657 450 695 
1468 617 359 682 
1469 111 597 684 
1470 318 308 764 
1471 542 289 697 
1472 142 267 771 
1473 401 526 769 
1474 308 283 764 
1475 558 487 709 
1476 417 402 760 
1477 389 559 706 
1478 415 416 748 
1479 414 561 763 
1480 292 290 694 
1481 536 423 777 
1482 605 411 735 
1483 330 328 702 
1484 577 572 708 
1485 261 706 711 
1486 248 637 761 
1487 290 310 694 
1488 301 248 761 
1489 597 542 697 
1490 328 528 702 
1491 710 392 765 
1492 713 128 777 
1493 567 114 712 
1494 628 268 747 
1495 289 595 697 
1496 572 651 708 
1497 435 732 733 
1498 578 577 708 
1499 395 698 710 
1500 698 371 710 
1501 395 710 765 
1502 280 278 755 
1503 312 592 737 
1504 651 122 759 
1505 593 369 718 
1506 575 574 745 
1507 446 530 738 
1508 722 446 738 
1509 406 451 758 
1510 220 564 768 
1511 286 288 716 
1512 531 446 722 
1513 594 286 716 
1514 625 567 712 
1515 423 713 777 
1516 369 625 718 
1517 700 701 745 
1518 9 630 751 
1519 637 404 761 
1520 114 588 712 
1521 569 118 752 
1522 595 594 716 
1523 597 433 684 
1524 561 546 763 
1525 97 327 656 
1526 556 626 725 
1527 278 389 755 
1528 574 700 745 
1529 530 387 756 
1530 118 670 752 
1531 298 556 725 
1532 675 475 755 
1533 122 596 759 
1534 735 476 736 
1535 268 714 747 
1536 663 592 767 
1537 152 620 754 
1538 581 605 736 
1539 700 315 701 
1540 390 658 734 
1541 696 593 718 
1542 546 548 763 
1543 396 643 774 
1544 651 410 708 
1545 642 497 770 
1546 295 581 736 
1547 590 254 739 
1548 670 590 739 
1549 686 406 758 
1550 421 670 739 
1551 254 623 739 
1552 701 444 745 
1553 605 735 736 
1554 402 707 760 
1555 243 245 750 
1556 623 622 750 
1557 528 687 757 
1558 622 243 750 
1559 178 686 758 
1560 439 696 718 
1561 560 298 725 
1562 606 323 699 
$EndElements